<?xml version="1.0" encoding="utf-8"?>
<!-- Generator: Adobe Illustrator 21.1.0, SVG Export Plug-In . SVG Version: 6.00 Build 0)  -->
<svg version="1.1" id="_x34_" xmlns="http://www.w3.org/2000/svg" xmlns:xlink="http://www.w3.org/1999/xlink" x="0px" y="0px"
	 viewBox="0 0 128 128" style="enable-background:new 0 0 128 128;" xml:space="preserve">
<style type="text/css">
	.st0{fill:#5AA36E;}
	.st1{fill:#72FFFF;}
</style>
<g>
	<polygon class="st0" points="0,0 0,32 0,64 0,96 0,128 128,128 128,96 128,64 128,32 128,0 	"/>
	<g>
		<g>
			<g>
				<path class="st1" d="M14.712,10.877c-1.754-0.585-1.7-2.484-0.131-2.746c1.569-0.262,2.092,0.523,1.961,1.7
					C16.412,11.007,15.104,11.007,14.712,10.877z"/>
				<path class="st1" d="M11.182,17.153c-1.711-0.76-1.438-2.484,0-3.007c1.438-0.523,1.7,0.392,2.092,1.569
					C13.666,16.891,12.358,17.676,11.182,17.153z"/>
				<path class="st1" d="M18.634,16.76c-1.255-0.538-1.438-2.484,0.131-2.877c1.569-0.392,2.223,0.392,2.092,1.831
					C20.726,17.153,19.55,17.153,18.634,16.76z"/>
				<path class="st1" d="M14.843,22.906c-1.204-0.602-0.915-2.746,0.785-2.746c1.7,0,1.7,1.177,1.438,2.092
					C16.804,23.167,16.15,23.559,14.843,22.906z"/>
			</g>
		</g>
		<path class="st1" d="M46.712,42.876c-1.754-0.585-1.7-2.484-0.131-2.746c1.569-0.261,2.092,0.523,1.961,1.7
			C48.412,43.007,47.104,43.007,46.712,42.876z"/>
		<path class="st1" d="M43.181,49.153c-1.711-0.76-1.438-2.484,0-3.007c1.438-0.523,1.7,0.392,2.092,1.569
			C45.666,48.891,44.358,49.676,43.181,49.153z"/>
		<path class="st1" d="M50.634,48.76c-1.255-0.538-1.438-2.484,0.131-2.876c1.569-0.392,2.223,0.392,2.092,1.83
			C52.726,49.153,51.55,49.153,50.634,48.76z"/>
		<path class="st1" d="M46.843,54.906c-1.204-0.602-0.915-2.746,0.785-2.746c1.7,0,1.7,1.177,1.438,2.092
			C48.804,55.167,48.15,55.559,46.843,54.906z"/>
		<g>
			<path class="st1" d="M78.712,10.162c-1.376-0.688-0.857-2.143,0.286-2.429c1.143-0.286,1.857,0.286,1.714,1.143
				C80.569,9.734,79.855,10.734,78.712,10.162z"/>
			<path class="st1" d="M75.997,16.448c-1.571-0.286-1-2.714,0.286-2.429c1.286,0.286,1.286,1,1.286,1.857
				C77.569,16.734,75.997,16.448,75.997,16.448z"/>
			<path class="st1" d="M83.283,16.591c-1.629,0-1.286-2.429,0.143-2.714c1.429-0.286,1.857,0.714,1.714,1.571
				C84.997,16.305,83.997,16.591,83.283,16.591z"/>
			<path class="st1" d="M79.855,21.591c-1.286-0.429-1.143-2.714,0.429-2.571c1.571,0.143,1.429,1.286,1.143,1.857
				C81.14,21.448,79.855,21.591,79.855,21.591z"/>
		</g>
		<g>
			<path class="st1" d="M111,42.571c-1.344-0.504-1-1.714-0.286-2.286c0.714-0.572,2-0.429,2.429,1
				C113.571,42.714,112.143,43,111,42.571z"/>
			<path class="st1" d="M108.428,49.714c-2.04-0.408-1.286-2.571-0.143-2.857c1.143-0.286,1.571,0.571,1.714,1.429
				C110.143,49.143,109.143,49.857,108.428,49.714z"/>
			<path class="st1" d="M115.714,50.286c-1.807,0-2.286-2.286-1-3c1.286-0.714,1.571,0.143,2.143,0.857
				C117.428,48.857,116.571,50.286,115.714,50.286z"/>
			<path class="st1" d="M111.286,56.429c-1.265-0.791-1.571-2.429-0.143-2.857c1.429-0.429,2,0.143,2.143,1
				C113.428,55.429,112.428,57.143,111.286,56.429z"/>
		</g>
	</g>
	<g>
		<g>
			<path class="st1" d="M116.932,114.015c1.754,0.585,1.7,2.484,0.131,2.746c-1.569,0.262-2.092-0.523-1.961-1.7
				C115.232,113.884,116.54,113.884,116.932,114.015z"/>
			<path class="st1" d="M120.462,107.739c1.711,0.76,1.438,2.484,0,3.007c-1.438,0.523-1.7-0.392-2.092-1.569
				C117.978,108,119.286,107.216,120.462,107.739z"/>
			<path class="st1" d="M113.01,108.131c1.255,0.538,1.438,2.484-0.131,2.877c-1.569,0.392-2.223-0.392-2.092-1.83
				C110.917,107.739,112.094,107.739,113.01,108.131z"/>
			<path class="st1" d="M116.801,101.986c1.204,0.602,0.915,2.746-0.785,2.746c-1.7,0-1.7-1.177-1.438-2.092
				C114.84,101.724,115.494,101.332,116.801,101.986z"/>
		</g>
	</g>
	<path class="st1" d="M79.549,83.384c1.754,0.585,1.7,2.484,0.131,2.746c-1.569,0.261-2.092-0.523-1.961-1.7
		C77.849,83.254,79.157,83.254,79.549,83.384z"/>
	<path class="st1" d="M83.079,77.108c1.711,0.76,1.438,2.484,0,3.007c-1.438,0.523-1.7-0.392-2.092-1.569
		C80.595,77.37,81.902,76.585,83.079,77.108z"/>
	<path class="st1" d="M75.627,77.501c1.255,0.538,1.438,2.484-0.131,2.876c-1.569,0.392-2.223-0.392-2.092-1.83
		C73.535,77.108,74.711,77.108,75.627,77.501z"/>
	<path class="st1" d="M79.418,71.355c1.204,0.602,0.915,2.746-0.785,2.746c-1.7,0-1.7-1.177-1.438-2.092
		C77.457,71.094,78.111,70.702,79.418,71.355z"/>
	<g>
		<path class="st1" d="M44.071,116.099c1.376,0.688,0.857,2.143-0.286,2.429c-1.143,0.286-1.857-0.286-1.714-1.143
			C42.214,116.527,42.928,115.527,44.071,116.099z"/>
		<path class="st1" d="M46.785,109.813c1.571,0.286,1,2.714-0.286,2.429c-1.286-0.286-1.286-1-1.286-1.857
			C45.214,109.527,46.785,109.813,46.785,109.813z"/>
		<path class="st1" d="M39.499,109.67c1.629,0,1.286,2.429-0.143,2.714c-1.429,0.286-1.857-0.714-1.714-1.571
			C37.785,109.956,38.785,109.67,39.499,109.67z"/>
		<path class="st1" d="M42.928,104.67c1.286,0.429,1.143,2.714-0.429,2.572c-1.571-0.143-1.429-1.286-1.143-1.857
			C41.642,104.813,42.928,104.67,42.928,104.67z"/>
	</g>
	<g>
		<path class="st1" d="M19.651,87.899c1.344,0.504,1,1.714,0.286,2.286c-0.714,0.571-2,0.429-2.429-1
			C17.08,87.756,18.508,87.47,19.651,87.899z"/>
		<path class="st1" d="M22.223,80.756c2.04,0.408,1.286,2.572,0.143,2.857c-1.143,0.286-1.571-0.571-1.714-1.429
			C20.508,81.327,21.508,80.613,22.223,80.756z"/>
		<path class="st1" d="M14.937,80.184c1.807,0,2.286,2.286,1,3c-1.286,0.714-1.571-0.143-2.143-0.857
			C13.223,81.613,14.08,80.184,14.937,80.184z"/>
		<path class="st1" d="M19.366,74.041c1.265,0.79,1.571,2.429,0.143,2.857c-1.429,0.429-2-0.143-2.143-1
			C17.223,75.041,18.223,73.327,19.366,74.041z"/>
	</g>
</g>
</svg>
