<?xml version="1.0" encoding="utf-8"?>
<!-- Generator: Adobe Illustrator 21.1.0, SVG Export Plug-In . SVG Version: 6.00 Build 0)  -->
<svg version="1.1" id="_x34_" xmlns="http://www.w3.org/2000/svg" xmlns:xlink="http://www.w3.org/1999/xlink" x="0px" y="0px"
	 viewBox="0 0 128 73" style="enable-background:new 0 0 128 73;" xml:space="preserve">
<style type="text/css">
	.st0{fill:#DFC21F;}
	.st1{fill:#FFFFFF;}
	.st2{fill:#70AA39;}
	.st3{fill:#52913A;}
	.st4{fill:#FFDF00;}
	.st5{fill:#FFED00;}
	.st6{fill:#5FAC67;}
	.st7{fill:#529844;}
</style>
<g>
	<rect class="st0" width="128" height="73"/>
	<path class="st1" d="M118.128,0.001c-1.119,1.637-2.888,2.77-4.951,2.958c-0.227,0.021-0.452,0.03-0.676,0.025
		c-1.018-0.011-1.989-0.261-2.862-0.7c-0.119-0.06-0.24-0.116-0.363-0.168c-0.473-0.201-0.963-0.339-1.461-0.415
		c-1.115-0.172-2.266-0.033-3.337,0.407c-0.122,0.05-0.246,0.097-0.371,0.141c-0.584,0.205-1.2,0.342-1.84,0.4
		c-1.243,0.113-2.444-0.08-3.535-0.519c-0.143-0.058-0.287-0.109-0.433-0.155c-1.026-0.324-2.118-0.358-3.161-0.078
		c-0.358,0.096-0.728,0.163-1.107,0.197c-2.092,0.191-4.046-0.63-5.42-2.077c-0.006-0.006-0.011-0.012-0.016-0.017H118.128z"/>
	<path class="st0" d="M127.999,0.001v10.517c-0.485,0.155-0.953,0.379-1.39,0.672c-1.031,0.689-2.232,1.132-3.537,1.243
		c-1.406,0.12-2.755-0.161-3.944-0.751c-0.926-0.459-1.916-0.727-2.922-0.808c-0.873-0.07-1.757,0.002-2.622,0.211
		c-0.367,0.09-0.745,0.151-1.131,0.184c-1.584,0.136-3.095-0.238-4.388-0.99c-2.122-1.234-3.655-3.487-3.952-6.183
		c-0.069-0.628-0.069-1.247-0.006-1.847c0.081-0.787,0.271-1.542,0.554-2.248H127.999z"/>
	<path class="st2" d="M90.095,14.775L90.095,14.775C90.01,14.781,89.928,14.799,90.095,14.775z"/>
	<path class="st2" d="M90.095,14.775L90.095,14.775C90.096,14.776,90.096,14.778,90.095,14.775z"/>
	<path class="st2" d="M116.314,9.516c0.003,0.464-0.034,0.917-0.108,1.357c-0.589,3.512-3.519,6.175-7.036,6.159
		c-0.495-0.003-0.977-0.058-1.444-0.16c-0.646-0.143-1.301-0.183-1.945-0.127c-1.286,0.114-2.529,0.617-3.572,1.465
		c-1.211,0.986-2.734,1.569-4.385,1.562c-0.447-0.002-0.906-0.046-1.365-0.128h-0.001c-1.973-0.354-3.973-1.417-5.246-2.919
		c-0.903-1.065-2.045-1.88-3.335-2.33c-2.823-0.983-4.855-3.766-4.868-7.056c-0.002-0.418,0.03-0.827,0.091-1.226
		c0.301-1.966,1.335-3.674,2.797-4.808c0.794-0.616,1.716-1.062,2.714-1.288c0.025-0.007,0.049-0.012,0.075-0.017h17.971
		c0.208,0.312,0.397,0.639,0.567,0.978c0.146,0.29,0.349,0.535,0.591,0.723c0.353,0.274,0.788,0.425,1.245,0.416
		c0.03-0.001,0.061-0.002,0.091-0.002c0.042,0,0.084,0,0.125,0.001c1.157,0.013,2.256,0.326,3.225,0.868
		c1.866,1.041,3.256,2.93,3.678,5.159C116.265,8.589,116.311,9.047,116.314,9.516z"/>
	<path class="st3" d="M127.999,5.98v15.995c-0.42,0.062-0.836,0.175-1.24,0.338c-0.965,0.39-2.014,0.603-3.11,0.603
		c-1.408,0-2.738-0.353-3.914-0.977c-1.211-0.644-2.644-0.606-3.834,0.083c-0.773,0.447-1.637,0.744-2.555,0.85
		c-0.229,0.026-0.461,0.041-0.696,0.044c-3.474,0.034-6.386-2.657-6.87-6.17c-0.043-0.306-0.067-0.617-0.071-0.934
		c-0.03-2.208,0.889-4.191,2.355-5.533c1.208-1.106,2.789-1.776,4.519-1.776c0.252,0,0.501,0.014,0.747,0.042
		c0.977,0.111,1.955-0.03,2.849-0.401c0.628-0.26,1.215-0.634,1.732-1.113c1.528-1.417,3.537-2.278,5.738-2.278
		C125.235,4.753,126.721,5.199,127.999,5.98z"/>
	<path class="st1" d="M128,36.682c-0.787-0.149-1.535-0.419-2.228-0.793c-1.379-0.746-3.01-0.807-4.435-0.161
		c-0.769,0.348-1.607,0.57-2.49,0.637c-1.12,0.086-2.201-0.085-3.192-0.467c-2.736-1.049-4.776-3.693-5.017-6.933
		c-0.03-0.395-0.03-0.787-0.004-1.172c0.149-2.2,1.168-4.2,2.713-5.58c1.199-1.071,2.714-1.769,4.383-1.896
		c1.172-0.09,2.302,0.101,3.328,0.519c1.702,0.691,3.587,0.644,5.269-0.098c0.529-0.234,1.089-0.409,1.672-0.519V36.682z"/>
	<path class="st4" d="M89.718,27.787c0.611,0.592,1.119,1.288,1.51,2.058c1.274,2.508,3.792,4.215,6.691,4.215
		c1.761,0,3.381-0.63,4.668-1.686c1.124-0.923,2.518-1.408,3.946-1.393c0.026,0,0.052,0,0.078,0c4.177,0,7.585-3.581,7.576-7.961
		c-0.009-4.378-3.398-7.924-7.576-7.924c-0.6,0-1.184,0.073-1.744,0.212c-2.011,0.497-4.12,0.153-5.927-0.898
		c-1.134-0.66-2.439-1.036-3.827-1.038c-4.369-0.007-7.939,3.73-7.94,8.31C87.172,24.096,88.153,26.268,89.718,27.787z"/>
	<path class="st5" d="M67.668,0.001c-0.82,0.454-1.739,0.73-2.713,0.781c-0.229,0.012-0.462,0.011-0.697-0.002
		c-0.316-0.019-0.626-0.061-0.929-0.125c-1.817-0.386-3.71-0.171-5.392,0.647c-0.872,0.425-1.845,0.663-2.87,0.663
		c-0.257,0-0.51-0.015-0.76-0.044c-0.427-0.049-0.855-0.068-1.281-0.056c-0.715,0.021-1.424,0.128-2.113,0.323
		c-0.648,0.184-1.277,0.446-1.874,0.787c-0.371,0.211-0.761,0.387-1.169,0.524C47.211,3.72,46.508,3.84,45.779,3.84
		c-0.501,0-0.99-0.057-1.46-0.164c-1.744-0.399-3.24-1.496-4.205-2.999c-0.151-0.236-0.316-0.462-0.492-0.676H67.668z"/>
	<path class="st6" d="M99.035,0.001c-0.163,0.699-0.413,1.362-0.737,1.975C97.516,3.457,96.3,4.651,94.832,5.37
		c-1.009,0.496-2.139,0.766-3.327,0.752c-0.799-0.009-1.568-0.146-2.288-0.392c-1.582-0.539-3.286-0.544-4.855,0.038
		c-0.407,0.15-0.828,0.267-1.262,0.346c-0.471,0.086-0.957,0.129-1.452,0.123c-0.894-0.011-1.752-0.177-2.55-0.473
		c-1.34-0.499-2.808-0.496-4.145-0.001c-0.058,0.021-0.114,0.044-0.171,0.067c-0.86,0.349-1.795,0.536-2.773,0.524
		c-1.516-0.018-2.921-0.509-4.089-1.338c-1.407-1-2.469-2.49-2.965-4.234c-0.073-0.255-0.134-0.515-0.181-0.781H99.035z"/>
	<path class="st7" d="M95.326,5.375c-0.038,0-0.075,0-0.113,0.001c-1.647,0.028-3.232-0.625-4.441-1.797
		c-1.478-1.433-3.454-2.309-5.626-2.309c-1.643,0-3.174,0.501-4.462,1.365c-1.63,1.094-3.641,1.355-5.469,0.688
		c-0.697-0.254-1.443-0.398-2.219-0.411c-3.961-0.068-7.198,3.239-7.231,7.393c-0.033,4.147,3.164,7.52,7.112,7.52
		c1.123,0,2.185-0.273,3.129-0.759c1.52-0.782,3.31-0.684,4.744,0.259c1.274,0.837,2.78,1.321,4.395,1.321
		c0.839,0,1.649-0.131,2.413-0.374c1.457-0.464,3.034-0.282,4.354,0.515c1.005,0.607,2.171,0.954,3.413,0.954
		c3.793,0,6.866-3.231,6.852-7.211C102.163,8.57,99.103,5.375,95.326,5.375z"/>
	<path class="st2" d="M36.678,0.001c-1.553,1.353-3.588,2.162-5.66,2.243c-0.744,0.029-1.476,0.168-2.181,0.405
		c-0.515,0.173-1.014,0.4-1.493,0.674c-1.629,0.934-3.731,1.303-5.619,1.041c-0.192-0.026-0.382-0.059-0.57-0.099
		c-0.52-0.11-1.018-0.274-1.488-0.483c-0.992-0.443-1.864-1.094-2.575-1.892c-0.961-1.078-2.297-1.697-3.703-1.768
		c-0.335-0.016-0.671-0.057-1.009-0.122H36.678z"/>
	<path class="st0" d="M26.783,9.573c-0.676,0.731-1.485,1.329-2.39,1.75c-0.765,0.355-1.6,0.585-2.481,0.659
		c-1.313,0.112-2.575-0.13-3.701-0.65c-1.932-0.893-4.117-0.949-6.075-0.124c-0.432,0.182-0.879,0.332-1.339,0.449
		c-0.487,0.123-0.99,0.209-1.504,0.252c-0.883,0.075-1.748,0.025-2.578-0.138c-0.896-0.175-1.752-0.479-2.548-0.896
		c-1.308-0.685-2.802-0.796-4.166-0.358V0.001h27.933c0.439,0.802,0.751,1.695,0.903,2.648c0.012,0.077,0.024,0.155,0.034,0.232
		C29.208,5.45,28.358,7.871,26.783,9.573z"/>
	<path class="st7" d="M31.356,0.666c0-0.001,0.001-0.002,0.001-0.002C31.319,0.655,31.282,0.648,31.356,0.666z"/>
	<path class="st7" d="M47.69,6.191c-0.639,2.106-2.396,3.596-4.439,3.856c-0.289,0.037-0.584,0.049-0.882,0.035
		c-0.13-0.006-0.259-0.017-0.386-0.032c-1.082-0.131-2.157,0.27-2.944,1.058c-0.957,0.958-2.324,1.438-3.724,1.168
		c-0.335-0.065-0.654-0.169-0.954-0.307c-0.752-0.348-1.569-0.483-2.378-0.415c-0.351,0.03-0.7,0.097-1.042,0.203
		c-1.354,0.419-2.894,0.516-4.476,0.211c-0.731-0.141-1.426-0.36-2.072-0.644c-2.81-1.231-4.709-3.682-4.813-6.295
		c-0.017-0.397,0.009-0.799,0.08-1.2c0.003-0.015,0.006-0.03,0.008-0.045c0.295-1.614,1.167-2.913,2.431-3.782h23.75
		c0.639,0.514,1.159,1.173,1.521,1.921c0.238,0.492,0.409,1.023,0.5,1.576C48.014,4.36,47.967,5.278,47.69,6.191z"/>
	<path class="st0" d="M70.526,16.019c-0.976,0.005-1.901-0.241-2.717-0.681c-0.125-0.067-0.252-0.127-0.381-0.178
		c-1.071-0.429-2.28-0.331-3.293,0.264c-1.133,0.666-2.43,1.066-3.817,1.119c-1.947,0.074-3.764-0.549-5.231-1.656
		c-1.614-1.217-3.632-1.713-5.585-1.329c-0.275,0.054-0.556,0.088-0.844,0.099c-2.409,0.091-4.519-1.412-5.407-3.609
		c-0.376-0.93-0.533-1.986-0.399-3.097c0.15-1.254,0.678-2.39,1.466-3.274c0.745-0.835,1.724-1.443,2.835-1.707
		c0.072-0.017,0.144-0.033,0.216-0.047c0.889-0.176,1.752-0.131,2.549,0.094c0.328,0.092,0.661,0.149,0.994,0.171
		c0.719,0.049,1.439-0.063,2.113-0.323c0.564-0.216,1.095-0.536,1.566-0.95c0.388-0.342,0.806-0.648,1.25-0.912h14.4
		c0.579,0.536,1.009,1.218,1.257,1.971c0.118,0.355,0.275,0.69,0.467,1.001c0.381,0.617,0.899,1.136,1.512,1.512
		c0.556,0.34,1.054,0.773,1.475,1.278c0.815,0.978,1.341,2.229,1.438,3.613C76.642,12.986,73.978,16.003,70.526,16.019z"/>
	<path class="st2" d="M11.402,19.098L11.402,19.098C11.338,19.103,11.277,19.117,11.402,19.098z"/>
	<path class="st2" d="M11.402,19.098L11.402,19.098C11.402,19.099,11.403,19.1,11.402,19.098z"/>
	<path class="st2" d="M34.237,16.375c-0.038-3.444-2.794-6.266-6.079-6.229c-0.026,0-0.052,0.001-0.077,0.001
		c-0.651,0.016-1.251-0.353-1.556-0.955c-1.256-2.482-3.746-4.172-6.613-4.172c-2.015,0-3.844,0.835-5.189,2.194
		C14.02,7.922,13.078,8.303,12.104,8.3c-0.005,0-0.011,0-0.016,0c-3.339,0-6.042,2.852-6.014,6.359
		c0.022,2.782,1.749,5.126,4.139,5.947c1.092,0.375,2.061,1.06,2.827,1.957c1.333,1.559,3.599,2.551,5.6,2.551
		c1.397,0,2.682-0.499,3.702-1.336c1.319-1.082,3.019-1.507,4.66-1.152c0.394,0.085,0.803,0.13,1.222,0.13
		C31.569,22.755,34.276,19.892,34.237,16.375z"/>
	<path class="st3" d="M12.696,16.412c0.007,0.779-0.113,1.529-0.337,2.228c-0.28,0.871-0.723,1.662-1.291,2.334
		c-1.187,1.406-2.921,2.292-4.854,2.292c-1.051,0-2.043-0.262-2.921-0.727c-1.026-0.543-2.174-0.732-3.291-0.565V5.98
		c0.81,0.493,1.536,1.121,2.152,1.854c1,1.189,2.447,1.865,3.959,1.841C6.136,9.675,6.16,9.675,6.185,9.675
		C6.828,9.671,7.45,9.767,8.037,9.946c1.057,0.322,2.002,0.918,2.759,1.711C11.958,12.872,12.681,14.55,12.696,16.412z"/>
	<path class="st1" d="M23.937,37.375c-1.36,0.104-2.665-0.15-3.833-0.683c-1.127-0.515-2.344-0.759-3.556-0.714
		c-0.633,0.024-1.264,0.128-1.881,0.313c-0.561,0.169-1.148,0.28-1.753,0.326c-1.185,0.09-2.332-0.076-3.391-0.454
		c-1.462-0.523-3.061-0.372-4.433,0.374C4.158,37.045,3.114,37.366,2,37.451c-0.684,0.053-1.355,0.012-2-0.11V20.877
		c0.275-0.052,0.556-0.09,0.843-0.111c0.9-0.069,1.776,0.022,2.604,0.25c1.345,0.37,2.776,0.091,3.914-0.747
		c0.334-0.246,0.686-0.468,1.054-0.663c0.986-0.523,2.083-0.854,3.253-0.943c0.232-0.017,0.463-0.026,0.691-0.023
		c1.558,0.011,3.03,0.462,4.297,1.249c1.427,0.885,3.133,1.124,4.742,0.708c0.48-0.123,0.978-0.203,1.49-0.233
		c2.295-0.136,4.453,0.782,6.031,2.349c1.438,1.426,2.396,3.389,2.539,5.579C31.764,32.971,28.404,37.034,23.937,37.375z"/>
	<path class="st6" d="M59.377,11.801c-1.006-0.058-1.968,0.152-2.822,0.57c-0.768,0.376-1.645,0.441-2.453,0.17
		c-0.501-0.169-1.031-0.276-1.581-0.312c-0.527-0.035-1.043-0.003-1.541,0.089c-1.257,0.232-2.543-0.186-3.443-1.135
		c-1.142-1.206-2.693-1.994-4.438-2.11c-1.82-0.12-3.519,0.514-4.819,1.646c-1.32,1.15-3.086,1.558-4.754,1.134
		c-0.385-0.098-0.783-0.162-1.192-0.189c-3.79-0.251-7.039,2.746-7.285,6.719c-0.246,3.974,2.631,7.4,6.42,7.651
		c1.875,0.124,3.622-0.553,4.936-1.751c1.226-1.117,2.905-1.516,4.474-1.074c0.435,0.123,0.889,0.202,1.356,0.233
		c0.674,0.045,1.331-0.014,1.957-0.163c1.315-0.313,2.691,0.036,3.719,0.951c1.03,0.916,2.34,1.505,3.792,1.601
		c1.449,0.096,2.816-0.313,3.946-1.083c0.76-0.518,1.675-0.729,2.573-0.597c0.151,0.022,0.305,0.039,0.46,0.049
		c3.281,0.217,6.106-2.409,6.287-5.857C65.15,14.908,62.653,11.988,59.377,11.801z"/>
	<path class="st0" d="M31.221,41.508c1.68,0.256,3.317-0.019,4.755-0.704c1.871-0.891,4.078-0.489,5.52,1.046
		c1.184,1.26,2.756,2.139,4.555,2.408c4.367,0.654,8.397-2.507,9.03-7.083c0.391-2.823-0.611-5.52-2.46-7.328
		c-0.727-0.711-1.254-1.614-1.519-2.618c-0.822-3.106-3.327-5.566-6.566-6.051c-2.33-0.349-4.569,0.394-6.244,1.859
		c-1.056,0.923-2.471,1.247-3.807,0.905c-0.27-0.069-0.545-0.125-0.825-0.167c-4.672-0.7-9,2.703-9.667,7.601
		C23.324,36.274,26.551,40.797,31.221,41.508z"/>
	<path class="st2" d="M85.68,15.592c-0.038,0-0.077,0-0.115,0.001c-1.678,0.029-3.294-0.637-4.526-1.832
		c-1.506-1.46-3.521-2.353-5.734-2.353c-1.674,0-3.235,0.511-4.548,1.392c-1.661,1.115-3.711,1.381-5.574,0.702
		c-0.71-0.259-1.47-0.405-2.261-0.419c-4.038-0.069-7.337,3.302-7.37,7.535c-0.033,4.227,3.225,7.665,7.249,7.665
		c1.144,0,2.227-0.278,3.189-0.773c1.549-0.797,3.373-0.697,4.835,0.264c1.299,0.853,2.834,1.347,4.479,1.347
		c0.855,0,1.681-0.133,2.459-0.381c1.485-0.473,3.092-0.287,4.437,0.525c1.024,0.618,2.212,0.972,3.479,0.972
		c3.866,0,6.998-3.293,6.984-7.35C92.649,18.848,89.53,15.592,85.68,15.592z"/>
	<path class="st7" d="M86.964,24.286c-0.289,0.014-0.574,0.045-0.853,0.093c-1.428,0.245-2.886-0.112-4.058-1.001
		c-1.507-1.143-3.38-1.778-5.383-1.68c-2.174,0.107-4.119,1.059-5.56,2.54c-1.341,1.379-3.265,1.92-5.083,1.425
		c-0.708-0.193-1.454-0.278-2.223-0.241c-0.615,0.03-1.208,0.138-1.772,0.313c-1.505,0.467-3.13,0.177-4.387-0.81
		c-1.204-0.945-2.716-1.474-4.335-1.394c-3.742,0.184-6.638,3.571-6.384,7.508c0.247,3.822,3.397,6.75,7.046,6.551
		c0.411-0.022,0.812-0.083,1.2-0.179c1.286-0.318,2.628,0.124,3.529,1.137c1.44,1.619,3.525,2.589,5.799,2.478
		c1.481-0.073,2.84-0.594,3.964-1.432c1.584-1.181,3.641-1.445,5.445-0.688c1.096,0.459,2.3,0.686,3.556,0.625
		c1.019-0.05,1.988-0.286,2.878-0.675c1.356-0.593,2.879-0.598,4.241-0.02c0.934,0.397,1.964,0.593,3.037,0.541
		c3.969-0.195,7.037-3.721,6.861-7.88C94.308,27.342,90.927,24.1,86.964,24.286z"/>
	<path class="st0" d="M128,31.266V46.56c-0.319,0.01-0.638,0-0.962-0.032c-0.066-0.008-0.132-0.016-0.195-0.024
		c-1.552-0.203-3.105,0.374-4.146,1.597c-0.003,0-0.003,0.003-0.005,0.005c-1.597,1.871-3.996,2.947-6.563,2.686
		c-0.158-0.019-0.316-0.04-0.472-0.066c-1.618-0.269-3.049-1.052-4.159-2.169c-0.762-0.764-1.737-1.247-2.783-1.344
		c-0.026-0.003-0.05-0.005-0.071-0.008c-0.862-0.087-1.684-0.3-2.451-0.619c-1.563-0.651-3.287-0.772-4.897-0.258
		c-0.978,0.311-2.03,0.432-3.11,0.319c-4.449-0.453-7.693-4.636-7.198-9.306c0.477-4.501,4.322-7.825,8.629-7.456
		c0.261,0.021,0.519,0.055,0.772,0.105c1.832,0.343,3.714,0.04,5.406-0.767c1.392-0.664,2.965-0.967,4.597-0.799
		c0.082,0.008,0.163,0.016,0.242,0.026c0.627,0.082,1.231,0.229,1.808,0.438c1.703,0.611,3.542,0.606,5.256,0.018
		c0.727-0.25,1.518-0.348,2.33-0.266c1.11,0.113,2.114,0.554,2.936,1.22c1.226,0.991,2.741,1.526,4.285,1.418
		C127.497,31.26,127.747,31.255,128,31.266z"/>
	<path class="st7" d="M127.999,31.299v19.612c-0.459-0.062-0.938-0.161-1.437-0.302c-1.585-0.45-2.913-1.358-3.872-2.502
		c-0.392-0.468-0.722-0.975-0.982-1.507c-0.307-0.625-0.875-1.064-1.538-1.166c-0.266-0.04-0.532-0.1-0.797-0.181
		c-0.03-0.009-0.059-0.018-0.088-0.027c-3.348-1.07-5.155-4.969-3.72-8.466c0.028-0.069,0.058-0.136,0.088-0.204
		c1.106-2.448,3.623-3.876,6.195-3.483c0.143,0.021,0.284,0.049,0.424,0.08c1.18,0.269,2.41-0.05,3.362-0.831
		C126.315,31.766,127.132,31.408,127.999,31.299z"/>
	<path class="st5" d="M119.229,45.471c-0.559-0.012-1.105,0.037-1.633,0.142c-1.746,0.347-3.556-0.151-4.918-1.35
		c-1.751-1.542-4.002-2.48-6.467-2.507c-1.99-0.022-3.853,0.555-5.434,1.569c-1.51,0.969-3.315,1.279-5.048,0.899
		c-0.628-0.138-1.278-0.213-1.943-0.22c-5.501-0.059-10.005,4.577-10.043,10.349c-0.038,5.746,4.358,10.434,9.839,10.494
		c1.898,0.02,3.676-0.518,5.194-1.469c1.355-0.849,2.983-1.057,4.501-0.599c0.866,0.261,1.78,0.406,2.725,0.416
		c1.916,0.021,3.714-0.513,5.256-1.457c1.488-0.911,3.291-1.05,4.89-0.379c0.878,0.369,1.835,0.576,2.838,0.587
		c4.29,0.046,7.813-3.521,7.936-7.999C127.046,49.358,123.607,45.565,119.229,45.471z"/>
	<path class="st6" d="M127.999,45.237v15.03c-1.169-0.878-2.618-1.23-4.038-0.986c-0.279,0.049-0.563,0.08-0.852,0.093
		c-2.784,0.131-5.28-1.429-6.58-3.81c-0.551-1.009-0.887-2.164-0.94-3.4c-0.021-0.489,0.003-0.969,0.068-1.436
		c0.329-2.356,1.701-4.378,3.628-5.501c0.941-0.55,2.015-0.886,3.164-0.942c1.074-0.053,2.103,0.143,3.037,0.54
		C126.291,45.165,127.151,45.303,127.999,45.237z"/>
	<path class="st7" d="M127.999,57.016v12.894c-1.056,0.072-2.091,0.424-3.007,1.038c-1.288,0.865-2.819,1.365-4.462,1.365
		c-2.172,0-4.149-0.875-5.626-2.308c-1.209-1.172-2.795-1.825-4.441-1.797c-0.038,0-0.075,0.001-0.113,0.001
		c-0.063,0-0.127-0.001-0.19-0.003c-3.69-0.104-6.648-3.258-6.662-7.152c-0.014-3.98,3.059-7.211,6.852-7.211
		c1.243,0,2.409,0.347,3.413,0.953c0.849,0.513,1.804,0.771,2.765,0.767c0.533-0.002,1.068-0.085,1.588-0.251
		c0.764-0.243,1.574-0.374,2.413-0.374c1.614,0,3.12,0.484,4.394,1.321C125.857,56.872,126.939,57.127,127.999,57.016z"/>
	<path class="st1" d="M118.128,73H88.594c-1.111-1.176-1.84-2.762-1.955-4.55c-0.113-1.778,0.412-3.459,1.374-4.787
		c1.088-1.503,2.735-2.556,4.646-2.786c0.383-0.046,0.763-0.058,1.135-0.038c1.448,0.076,2.896-0.247,4.19-0.936
		c0.881-0.468,1.86-0.771,2.905-0.866c1.893-0.173,3.688,0.366,5.147,1.402c1.617,1.15,3.581,1.647,5.511,1.337
		c0.114-0.018,0.227-0.034,0.342-0.046c3.816-0.41,7.226,2.596,7.497,6.607C119.502,70.063,119.023,71.692,118.128,73z"/>
	<path class="st0" d="M127.999,68.384V73h-23.338c0.21-0.524,0.469-1.02,0.776-1.483c1.089-1.649,2.753-2.864,4.724-3.31
		c0.395-0.09,0.803-0.148,1.221-0.173c1.356-0.082,2.654,0.209,3.802,0.788c1.687,0.852,3.605,1.053,5.424,0.592
		c0.391-0.099,0.792-0.168,1.205-0.203c0.442-0.038,0.879-0.035,1.307,0.003C124.802,69.366,126.483,69.083,127.999,68.384z"/>
	<path class="st2" d="M106.657,73H88.686c0.474-0.102,0.964-0.155,1.466-0.152h0.02c1.152,0.008,2.268-0.437,3.101-1.272
		c1.598-1.6,3.766-2.579,6.149-2.568c2.328,0.01,4.441,0.962,6.015,2.509C105.892,71.964,106.301,72.462,106.657,73z"/>
	<path class="st4" d="M50.027,48.079c0.305,0.028,0.607,0.031,0.903,0.01c1.219-0.086,2.417,0.336,3.384,1.12
		c0.649,0.526,1.443,0.873,2.32,0.963c0.641,0.066,1.264-0.013,1.84-0.21c1.353-0.464,2.805-0.468,4.151,0.015
		c0.513,0.184,1.054,0.309,1.618,0.367c1.289,0.132,2.531-0.106,3.631-0.631c1.337-0.638,2.823-0.878,4.268-0.606
		c0.2,0.038,0.405,0.066,0.612,0.083c3.4,0.291,6.438-2.334,6.815-5.889c0.391-3.69-2.171-6.992-5.685-7.351
		c-0.854-0.087-1.685,0.007-2.458,0.254c-1.271,0.405-2.632,0.309-3.867-0.205c-0.605-0.252-1.254-0.42-1.934-0.489
		c-0.019-0.002-0.037-0.004-0.056-0.006c-0.828-0.078-1.599-0.458-2.198-1.062c-0.961-0.969-2.229-1.618-3.659-1.764
		c-2.029-0.208-3.924,0.644-5.186,2.125c-0.823,0.966-2.049,1.421-3.274,1.261c-0.051-0.007-0.103-0.013-0.154-0.018
		c-3.195-0.327-6.035,2.146-6.304,5.511C44.53,44.855,46.883,47.786,50.027,48.079z"/>
	<path class="st6" d="M105.259,37.42c-0.244,0.005-0.484,0.021-0.721,0.049c-1.974,0.231-3.94-0.444-5.414-1.84
		c-1.921-1.819-4.527-2.835-7.311-2.597c-2.085,0.178-3.962,1.032-5.452,2.34c-1.984,1.742-4.562,2.532-7.14,2.298
		c-0.428-0.039-0.865-0.041-1.307-0.003c-0.412,0.035-0.815,0.104-1.205,0.202c-1.819,0.462-3.738,0.26-5.424-0.592
		c-1.148-0.579-2.446-0.87-3.802-0.788c-4.477,0.269-7.783,4.392-7.269,9.062c0.477,4.339,4.156,7.53,8.34,7.173
		c0.387-0.033,0.764-0.095,1.131-0.184c1.863-0.452,3.816-0.261,5.544,0.597c1.189,0.59,2.538,0.871,3.944,0.751
		c1.304-0.111,2.506-0.554,3.537-1.243c1.669-1.116,3.784-1.241,5.555-0.314c1.535,0.803,3.291,1.191,5.126,1.034
		c1.002-0.086,1.957-0.328,2.843-0.701c1.958-0.826,4.144-0.768,6.075,0.124c1.126,0.52,2.388,0.763,3.701,0.651
		c4.357-0.372,7.563-4.5,6.959-9.102C112.444,40.329,109.117,37.344,105.259,37.42z"/>
	<path class="st7" d="M18.285,42.588c-0.004,0.015-0.008,0.03-0.013,0.045c-0.957,3.391-4.184,5.227-8.112,4.736
		c-1.123-0.141-2.25,0.257-3.061,1.083c-1.285,1.306-3.639,2.929-7.099,2.46V31.299c0.611-0.076,1.245-0.029,1.873,0.161
		c0.364,0.109,0.705,0.261,1.021,0.449c1.138,0.674,2.471,0.883,3.756,0.626c1.54-0.307,3.252-0.238,4.967,0.281
		c2.023,0.611,3.725,1.751,4.931,3.162C18.187,37.895,18.912,40.311,18.285,42.588z"/>
	<path class="st2" d="M41.158,35.513c-0.159-0.003-0.316-0.001-0.472,0.007c-1.461,0.077-2.895-0.408-4.063-1.331
		c-1.465-1.157-3.287-1.843-5.263-1.843c-1.743,0-3.368,0.534-4.732,1.455c-1.615,1.09-3.584,1.438-5.437,0.908
		c-0.59-0.169-1.212-0.257-1.855-0.253c-3.705,0.027-6.743,3.188-6.794,7.072c-0.053,4.009,3.031,7.276,6.842,7.276
		c0.698,0,1.372-0.11,2.007-0.313c1.753-0.563,3.654-0.326,5.189,0.725c1.374,0.941,3.016,1.488,4.78,1.488
		c1.48,0,2.874-0.385,4.096-1.065c1.266-0.704,2.723-0.91,4.121-0.58c0.464,0.11,0.947,0.168,1.443,0.168
		c3.59,0,6.505-3.033,6.541-6.788C47.597,38.697,44.726,35.59,41.158,35.513z"/>
	<path class="st7" d="M35.084,61.36c0.042-0.002,0.084-0.004,0.126-0.006c1.845-0.1,3.647,0.565,5.047,1.828
		c1.711,1.544,3.96,2.443,6.394,2.352c1.841-0.069,3.539-0.695,4.949-1.718c1.785-1.294,4.029-1.672,6.104-1.001
		c0.791,0.256,1.632,0.385,2.503,0.368c4.443-0.09,7.945-3.933,7.824-8.59c-0.122-4.65-3.834-8.296-8.259-8.131
		c-1.259,0.047-2.439,0.397-3.478,0.982c-1.674,0.94-3.684,0.906-5.328-0.091c-1.46-0.885-3.167-1.364-4.977-1.297
		c-0.941,0.035-1.844,0.216-2.69,0.52c-1.616,0.582-3.39,0.443-4.9-0.395c-1.15-0.638-2.469-0.978-3.863-0.926
		c-4.252,0.159-7.573,3.91-7.405,8.37C27.298,58.065,30.85,61.519,35.084,61.36z"/>
	<path class="st0" d="M57.333,55.223c0.05,4.475,3.631,8.142,7.9,8.094c0.034,0,0.067-0.001,0.1-0.002
		c0.845-0.021,1.626,0.458,2.022,1.241c1.632,3.225,4.868,5.422,8.592,5.422c2.619,0,4.995-1.086,6.743-2.851
		c0.911-0.92,2.135-1.416,3.401-1.412c0.007,0,0.014,0,0.021,0c4.338,0,7.851-3.706,7.814-8.262
		c-0.029-3.614-2.273-6.661-5.378-7.727c-1.419-0.487-2.677-1.377-3.674-2.543c-1.732-2.026-4.677-3.315-7.276-3.315
		c-1.814,0-3.484,0.648-4.811,1.736c-1.714,1.406-3.923,1.958-6.055,1.497c-0.513-0.111-1.043-0.169-1.587-0.169
		C60.8,46.933,57.282,50.654,57.333,55.223z"/>
	<path class="st6" d="M28.764,60.129c-1.619,0.08-3.132-0.45-4.335-1.394c-1.257-0.987-2.881-1.277-4.386-0.81
		c-0.565,0.175-1.158,0.283-1.773,0.312c-0.769,0.038-1.515-0.048-2.223-0.241c-1.818-0.495-3.741,0.047-5.082,1.425
		c-0.009,0.009-0.017,0.018-0.025,0.026c-1.439,1.466-3.374,2.408-5.535,2.514c-2.002,0.099-3.876-0.537-5.383-1.68
		c-0.007-0.005-0.014-0.011-0.021-0.015v-15.03c0.589-0.046,1.174-0.191,1.729-0.433c0.89-0.39,1.859-0.625,2.879-0.675
		c1.255-0.062,2.459,0.165,3.555,0.625c1.805,0.757,3.862,0.493,5.446-0.688c1.124-0.838,2.483-1.36,3.964-1.433
		c0.235-0.011,0.468-0.011,0.699,0c2,0.096,3.809,1.026,5.101,2.478c0.902,1.013,2.243,1.455,3.53,1.138
		c0.387-0.096,0.788-0.157,1.199-0.179c3.65-0.198,6.799,2.729,7.046,6.551C35.402,56.558,32.506,59.945,28.764,60.129z"/>
	<path class="st5" d="M67.668,73H39.621c-0.466-0.567-1.016-1.054-1.629-1.441c-0.126-0.08-0.255-0.155-0.386-0.227
		c-1.91-1.036-3.221-3.118-3.24-5.524c-0.017-2.144,1.046-4.085,2.648-5.236c0.92-0.662,2.018-1.063,3.192-1.092
		c0.245-0.006,0.487,0.003,0.724,0.027c1.291,0.13,2.573-0.326,3.509-1.267c1.045-1.05,2.463-1.695,4.024-1.695
		c2.072,0,4.253,0.874,5.42,2.486c0.528,0.729,1.268,1.261,2.104,1.526c0.58,0.183,1.154,0.416,1.558,0.581
		c1.298,0.531,2.757,0.437,3.983-0.256c0.923-0.522,1.98-0.819,3.102-0.819c2.586,0,4.821,1.572,5.884,3.853
		c0.393,0.842,0.626,1.78,0.659,2.771C71.264,69.42,69.81,71.815,67.668,73z"/>
	<path class="st6" d="M99.254,71.157c-0.006,0.635-0.081,1.252-0.219,1.843H64.774c-0.082-0.457-0.127-0.928-0.129-1.409
		c-0.019-3.766,2.515-6.912,5.871-7.674c0.589-0.134,1.204-0.195,1.835-0.172c0.57,0.021,1.123,0.108,1.653,0.256
		c1.432,0.398,2.949,0.216,4.281-0.464c1.067-0.546,2.269-0.846,3.537-0.831c0.924,0.011,1.808,0.187,2.629,0.504
		c1.144,0.44,2.363,0.585,3.563,0.453c0.485-0.054,0.967-0.153,1.439-0.297c0.704-0.214,1.448-0.325,2.219-0.316
		C95.884,63.097,99.292,66.741,99.254,71.157z"/>
	<path class="st7" d="M11.912,63.279c-0.005,0.63-0.084,1.239-0.228,1.821c-0.802,3.257-3.641,5.63-7.003,5.572
		c-0.776-0.013-1.522-0.157-2.219-0.411c-0.801-0.293-1.637-0.406-2.462-0.35V57.016c0.572-0.059,1.138-0.224,1.67-0.499
		C2.615,56.032,3.677,55.76,4.8,55.76c2.617,0,4.904,1.482,6.139,3.689C11.567,60.571,11.923,61.881,11.912,63.279z"/>
	<path class="st2" d="M39.31,68.532c-0.224,1.126-0.685,2.144-1.318,3.027c-0.381,0.531-0.823,1.014-1.314,1.441H12.382
		c-0.045-0.008-0.09-0.017-0.136-0.027c-4.181-0.875-6.892-5.147-6.048-9.528c0.666-3.456,3.686-5.875,6.982-6.306
		c1.55-0.201,3.002-0.92,4.126-2.057c1.584-1.604,3.858-2.386,6.193-1.892c1.701,0.36,3.132,1.34,4.122,2.669
		c0.995,1.337,2.496,2.14,4.11,2.248c0.386,0.026,0.777,0.081,1.167,0.166c1.618,0.354,3.024,1.175,4.117,2.301
		C38.953,62.569,39.907,65.524,39.31,68.532z"/>
	<path class="st0" d="M27.934,73H0.001v-4.616c0.809-0.372,1.571-0.863,2.261-1.469c1.49-1.309,3.368-2.163,5.452-2.34
		c1.389-0.118,2.734,0.075,3.97,0.524c1.243,0.451,2.377,1.161,3.341,2.073c1.474,1.396,3.439,2.071,5.414,1.84
		c0.237-0.027,0.478-0.044,0.722-0.049c2.339-0.046,4.485,1.034,5.927,2.786C27.406,72.135,27.69,72.553,27.934,73z"/>
	<path class="st7" d="M45.849,73h-23.75c1.185-0.815,2.715-1.251,4.438-1.215c0.185,0.004,0.369-0.008,0.55-0.035
		c0.814-0.123,1.565-0.553,2.104-1.221c1.179-1.462,3.554-3.415,7.468-2.729c2.056,0.36,3.731,1.582,4.691,3.142
		c0.327,0.531,0.875,0.873,1.478,0.903c0.241,0.012,0.484,0.04,0.728,0.088C44.42,72.099,45.198,72.474,45.849,73z"/>
	<path class="st0" d="M70.242,73h-14.4c1.144-0.683,2.459-1.094,3.866-1.147c0.96-0.037,1.889,0.097,2.759,0.374
		c0.492,0.156,0.999,0.235,1.506,0.235c0.603,0,1.204-0.111,1.775-0.335c0.952-0.372,2.03-0.406,3.06-0.016
		C69.352,72.317,69.834,72.622,70.242,73z"/>
	<path class="st2" d="M41.165,52.409L41.165,52.409C41.102,52.414,41.04,52.428,41.165,52.409z"/>
	<path class="st2" d="M41.165,52.409L41.165,52.409C41.166,52.41,41.166,52.412,41.165,52.409z"/>
</g>
</svg>
